<svg xmlns="http://www.w3.org/2000/svg" width="1600" height="1000" viewBox="0 0 1600 1000" preserveAspectRatio="xMidYMid slice">
<defs>
<linearGradient id="sky" x1="0" y1="0" x2="0" y2="1"><stop offset="0" stop-color="#07080a"/><stop offset="0.62" stop-color="#1a1416"/><stop offset="1" stop-color="#3a1a1c"/></linearGradient>
<linearGradient id="face1" x1="0" y1="0" x2="1" y2="1"><stop offset="0" stop-color="#4a4a4f"/><stop offset="1" stop-color="#222226"/></linearGradient>
<linearGradient id="face2" x1="0" y1="0" x2="1" y2="1"><stop offset="0" stop-color="#3c3a3a"/><stop offset="1" stop-color="#1b1b1e"/></linearGradient>
<linearGradient id="side1" x1="0" y1="0" x2="1" y2="0"><stop offset="0" stop-color="#18181b"/><stop offset="1" stop-color="#0c0c0e"/></linearGradient>
<linearGradient id="side2" x1="0" y1="0" x2="1" y2="0"><stop offset="0" stop-color="#141416"/><stop offset="1" stop-color="#09090a"/></linearGradient>
<radialGradient id="glow" cx="0.5" cy="1" r="0.7"><stop offset="0" stop-color="#ac2027" stop-opacity="0.38"/><stop offset="1" stop-color="#ac2027" stop-opacity="0"/></radialGradient>
<filter id="grain"><feTurbulence type="fractalNoise" baseFrequency="0.9" numOctaves="2" stitchTiles="stitch"/><feColorMatrix values="0 0 0 0 1  0 0 0 0 1  0 0 0 0 1  0 0 0 0.06 0"/></filter>
</defs>
<rect width="1600" height="1000" fill="url(#sky)"/>
<rect width="1600" height="1000" fill="url(#glow)"/>
<polygon points="560,380 640,352 640,912 560,940" fill="url(#side2)"/><polygon points="200,380 280,352 640,352 560,380" fill="#2a2a2c"/><rect x="200" y="380" width="360" height="560" fill="url(#face2)"/><rect x="208.2" y="387.8" width="35.0" height="27.6" fill="#0d0e10" opacity="0.9"/><rect x="208.2" y="430.8" width="35.0" height="27.6" fill="#0d0e10" opacity="0.9"/><rect x="208.2" y="473.9" width="35.0" height="27.6" fill="#0d0e10" opacity="0.9"/><rect x="208.2" y="517.0" width="35.0" height="27.6" fill="#0d0e10" opacity="0.9"/><rect x="208.2" y="560.1" width="35.0" height="27.6" fill="#0d0e10" opacity="0.9"/><rect x="208.2" y="603.1" width="35.0" height="27.6" fill="#0d0e10" opacity="0.9"/><rect x="208.2" y="646.2" width="35.0" height="27.6" fill="#d9b98a" opacity="0.7637300067179511"/><rect x="208.2" y="689.3" width="35.0" height="27.6" fill="#d9b98a" opacity="0.7164248928271351"/><rect x="208.2" y="732.4" width="35.0" height="27.6" fill="#0d0e10" opacity="0.9"/><rect x="208.2" y="775.4" width="35.0" height="27.6" fill="#0d0e10" opacity="0.9"/><rect x="208.2" y="818.5" width="35.0" height="27.6" fill="#0d0e10" opacity="0.9"/><rect x="208.2" y="861.6" width="35.0" height="27.6" fill="#0d0e10" opacity="0.9"/><rect x="208.2" y="904.7" width="35.0" height="27.6" fill="#0d0e10" opacity="0.9"/><rect x="259.7" y="387.8" width="35.0" height="27.6" fill="#0d0e10" opacity="0.9"/><rect x="259.7" y="430.8" width="35.0" height="27.6" fill="#d9b98a" opacity="0.7790946549405785"/><rect x="259.7" y="473.9" width="35.0" height="27.6" fill="#0d0e10" opacity="0.9"/><rect x="259.7" y="517.0" width="35.0" height="27.6" fill="#d9b98a" opacity="0.8132394491058027"/><rect x="259.7" y="560.1" width="35.0" height="27.6" fill="#0d0e10" opacity="0.9"/><rect x="259.7" y="603.1" width="35.0" height="27.6" fill="#0d0e10" opacity="0.9"/><rect x="259.7" y="646.2" width="35.0" height="27.6" fill="#0d0e10" opacity="0.9"/><rect x="259.7" y="689.3" width="35.0" height="27.6" fill="#0d0e10" opacity="0.9"/><rect x="259.7" y="732.4" width="35.0" height="27.6" fill="#0d0e10" opacity="0.9"/><rect x="259.7" y="775.4" width="35.0" height="27.6" fill="#0d0e10" opacity="0.9"/><rect x="259.7" y="818.5" width="35.0" height="27.6" fill="#0d0e10" opacity="0.9"/><rect x="259.7" y="861.6" width="35.0" height="27.6" fill="#0d0e10" opacity="0.9"/><rect x="259.7" y="904.7" width="35.0" height="27.6" fill="#0d0e10" opacity="0.9"/><rect x="311.1" y="387.8" width="35.0" height="27.6" fill="#0d0e10" opacity="0.9"/><rect x="311.1" y="430.8" width="35.0" height="27.6" fill="#0d0e10" opacity="0.9"/><rect x="311.1" y="473.9" width="35.0" height="27.6" fill="#0d0e10" opacity="0.9"/><rect x="311.1" y="517.0" width="35.0" height="27.6" fill="#0d0e10" opacity="0.9"/><rect x="311.1" y="560.1" width="35.0" height="27.6" fill="#0d0e10" opacity="0.9"/><rect x="311.1" y="603.1" width="35.0" height="27.6" fill="#d9b98a" opacity="0.5851737614884851"/><rect x="311.1" y="646.2" width="35.0" height="27.6" fill="#0d0e10" opacity="0.9"/><rect x="311.1" y="689.3" width="35.0" height="27.6" fill="#0d0e10" opacity="0.9"/><rect x="311.1" y="732.4" width="35.0" height="27.6" fill="#0d0e10" opacity="0.9"/><rect x="311.1" y="775.4" width="35.0" height="27.6" fill="#0d0e10" opacity="0.9"/><rect x="311.1" y="818.5" width="35.0" height="27.6" fill="#0d0e10" opacity="0.9"/><rect x="311.1" y="861.6" width="35.0" height="27.6" fill="#0d0e10" opacity="0.9"/><rect x="311.1" y="904.7" width="35.0" height="27.6" fill="#0d0e10" opacity="0.9"/><rect x="362.5" y="387.8" width="35.0" height="27.6" fill="#d9b98a" opacity="0.578269593570507"/><rect x="362.5" y="430.8" width="35.0" height="27.6" fill="#0d0e10" opacity="0.9"/><rect x="362.5" y="473.9" width="35.0" height="27.6" fill="#0d0e10" opacity="0.9"/><rect x="362.5" y="517.0" width="35.0" height="27.6" fill="#d9b98a" opacity="0.751508388622435"/><rect x="362.5" y="560.1" width="35.0" height="27.6" fill="#0d0e10" opacity="0.9"/><rect x="362.5" y="603.1" width="35.0" height="27.6" fill="#0d0e10" opacity="0.9"/><rect x="362.5" y="646.2" width="35.0" height="27.6" fill="#0d0e10" opacity="0.9"/><rect x="362.5" y="689.3" width="35.0" height="27.6" fill="#0d0e10" opacity="0.9"/><rect x="362.5" y="732.4" width="35.0" height="27.6" fill="#d9b98a" opacity="0.7828254847474515"/><rect x="362.5" y="775.4" width="35.0" height="27.6" fill="#0d0e10" opacity="0.9"/><rect x="362.5" y="818.5" width="35.0" height="27.6" fill="#0d0e10" opacity="0.9"/><rect x="362.5" y="861.6" width="35.0" height="27.6" fill="#0d0e10" opacity="0.9"/><rect x="362.5" y="904.7" width="35.0" height="27.6" fill="#0d0e10" opacity="0.9"/><rect x="413.9" y="387.8" width="35.0" height="27.6" fill="#0d0e10" opacity="0.9"/><rect x="413.9" y="430.8" width="35.0" height="27.6" fill="#0d0e10" opacity="0.9"/><rect x="413.9" y="473.9" width="35.0" height="27.6" fill="#0d0e10" opacity="0.9"/><rect x="413.9" y="517.0" width="35.0" height="27.6" fill="#0d0e10" opacity="0.9"/><rect x="413.9" y="560.1" width="35.0" height="27.6" fill="#0d0e10" opacity="0.9"/><rect x="413.9" y="603.1" width="35.0" height="27.6" fill="#0d0e10" opacity="0.9"/><rect x="413.9" y="646.2" width="35.0" height="27.6" fill="#0d0e10" opacity="0.9"/><rect x="413.9" y="689.3" width="35.0" height="27.6" fill="#0d0e10" opacity="0.9"/><rect x="413.9" y="732.4" width="35.0" height="27.6" fill="#0d0e10" opacity="0.9"/><rect x="413.9" y="775.4" width="35.0" height="27.6" fill="#0d0e10" opacity="0.9"/><rect x="413.9" y="818.5" width="35.0" height="27.6" fill="#0d0e10" opacity="0.9"/><rect x="413.9" y="861.6" width="35.0" height="27.6" fill="#d9b98a" opacity="0.6917098910276359"/><rect x="413.9" y="904.7" width="35.0" height="27.6" fill="#0d0e10" opacity="0.9"/><rect x="465.4" y="387.8" width="35.0" height="27.6" fill="#0d0e10" opacity="0.9"/><rect x="465.4" y="430.8" width="35.0" height="27.6" fill="#0d0e10" opacity="0.9"/><rect x="465.4" y="473.9" width="35.0" height="27.6" fill="#0d0e10" opacity="0.9"/><rect x="465.4" y="517.0" width="35.0" height="27.6" fill="#d9b98a" opacity="0.6650860373466677"/><rect x="465.4" y="560.1" width="35.0" height="27.6" fill="#0d0e10" opacity="0.9"/><rect x="465.4" y="603.1" width="35.0" height="27.6" fill="#0d0e10" opacity="0.9"/><rect x="465.4" y="646.2" width="35.0" height="27.6" fill="#0d0e10" opacity="0.9"/><rect x="465.4" y="689.3" width="35.0" height="27.6" fill="#0d0e10" opacity="0.9"/><rect x="465.4" y="732.4" width="35.0" height="27.6" fill="#0d0e10" opacity="0.9"/><rect x="465.4" y="775.4" width="35.0" height="27.6" fill="#0d0e10" opacity="0.9"/><rect x="465.4" y="818.5" width="35.0" height="27.6" fill="#0d0e10" opacity="0.9"/><rect x="465.4" y="861.6" width="35.0" height="27.6" fill="#0d0e10" opacity="0.9"/><rect x="465.4" y="904.7" width="35.0" height="27.6" fill="#0d0e10" opacity="0.9"/><rect x="516.8" y="387.8" width="35.0" height="27.6" fill="#0d0e10" opacity="0.9"/><rect x="516.8" y="430.8" width="35.0" height="27.6" fill="#d9b98a" opacity="0.7650884072832244"/><rect x="516.8" y="473.9" width="35.0" height="27.6" fill="#d9b98a" opacity="0.5543422132285043"/><rect x="516.8" y="517.0" width="35.0" height="27.6" fill="#0d0e10" opacity="0.9"/><rect x="516.8" y="560.1" width="35.0" height="27.6" fill="#0d0e10" opacity="0.9"/><rect x="516.8" y="603.1" width="35.0" height="27.6" fill="#0d0e10" opacity="0.9"/><rect x="516.8" y="646.2" width="35.0" height="27.6" fill="#d9b98a" opacity="0.5806958689962961"/><rect x="516.8" y="689.3" width="35.0" height="27.6" fill="#0d0e10" opacity="0.9"/><rect x="516.8" y="732.4" width="35.0" height="27.6" fill="#0d0e10" opacity="0.9"/><rect x="516.8" y="775.4" width="35.0" height="27.6" fill="#d9b98a" opacity="0.8447005873986988"/><rect x="516.8" y="818.5" width="35.0" height="27.6" fill="#0d0e10" opacity="0.9"/><rect x="516.8" y="861.6" width="35.0" height="27.6" fill="#0d0e10" opacity="0.9"/><rect x="516.8" y="904.7" width="35.0" height="27.6" fill="#0d0e10" opacity="0.9"/><rect x="198.5" y="380" width="3" height="560" fill="#3b3b3f"/><rect x="249.9" y="380" width="3" height="560" fill="#3b3b3f"/><rect x="301.4" y="380" width="3" height="560" fill="#3b3b3f"/><rect x="352.8" y="380" width="3" height="560" fill="#3b3b3f"/><rect x="404.2" y="380" width="3" height="560" fill="#3b3b3f"/><rect x="455.6" y="380" width="3" height="560" fill="#3b3b3f"/><rect x="507.1" y="380" width="3" height="560" fill="#3b3b3f"/><rect x="558.5" y="380" width="3" height="560" fill="#3b3b3f"/><polygon points="1000,300 1080,272 1080,912 1000,940" fill="url(#side1)"/><polygon points="640,300 720,272 1080,272 1000,300" fill="#2a2a2c"/><rect x="640" y="300" width="360" height="640" fill="url(#face1)"/><rect x="648.2" y="307.7" width="35.0" height="27.3" fill="#0d0e10" opacity="0.9"/><rect x="648.2" y="350.3" width="35.0" height="27.3" fill="#0d0e10" opacity="0.9"/><rect x="648.2" y="393.0" width="35.0" height="27.3" fill="#d9b98a" opacity="0.8102478912846409"/><rect x="648.2" y="435.7" width="35.0" height="27.3" fill="#d9b98a" opacity="0.8423538477124431"/><rect x="648.2" y="478.3" width="35.0" height="27.3" fill="#0d0e10" opacity="0.9"/><rect x="648.2" y="521.0" width="35.0" height="27.3" fill="#0d0e10" opacity="0.9"/><rect x="648.2" y="563.7" width="35.0" height="27.3" fill="#0d0e10" opacity="0.9"/><rect x="648.2" y="606.3" width="35.0" height="27.3" fill="#0d0e10" opacity="0.9"/><rect x="648.2" y="649.0" width="35.0" height="27.3" fill="#0d0e10" opacity="0.9"/><rect x="648.2" y="691.7" width="35.0" height="27.3" fill="#0d0e10" opacity="0.9"/><rect x="648.2" y="734.3" width="35.0" height="27.3" fill="#0d0e10" opacity="0.9"/><rect x="648.2" y="777.0" width="35.0" height="27.3" fill="#0d0e10" opacity="0.9"/><rect x="648.2" y="819.7" width="35.0" height="27.3" fill="#d9b98a" opacity="0.7496592576613926"/><rect x="648.2" y="862.3" width="35.0" height="27.3" fill="#0d0e10" opacity="0.9"/><rect x="648.2" y="905.0" width="35.0" height="27.3" fill="#0d0e10" opacity="0.9"/><rect x="699.7" y="307.7" width="35.0" height="27.3" fill="#0d0e10" opacity="0.9"/><rect x="699.7" y="350.3" width="35.0" height="27.3" fill="#0d0e10" opacity="0.9"/><rect x="699.7" y="393.0" width="35.0" height="27.3" fill="#d9b98a" opacity="0.7615391440277637"/><rect x="699.7" y="435.7" width="35.0" height="27.3" fill="#0d0e10" opacity="0.9"/><rect x="699.7" y="478.3" width="35.0" height="27.3" fill="#d9b98a" opacity="0.8490080855782182"/><rect x="699.7" y="521.0" width="35.0" height="27.3" fill="#0d0e10" opacity="0.9"/><rect x="699.7" y="563.7" width="35.0" height="27.3" fill="#0d0e10" opacity="0.9"/><rect x="699.7" y="606.3" width="35.0" height="27.3" fill="#d9b98a" opacity="0.7309872222044447"/><rect x="699.7" y="649.0" width="35.0" height="27.3" fill="#0d0e10" opacity="0.9"/><rect x="699.7" y="691.7" width="35.0" height="27.3" fill="#0d0e10" opacity="0.9"/><rect x="699.7" y="734.3" width="35.0" height="27.3" fill="#0d0e10" opacity="0.9"/><rect x="699.7" y="777.0" width="35.0" height="27.3" fill="#d9b98a" opacity="0.7899993156734851"/><rect x="699.7" y="819.7" width="35.0" height="27.3" fill="#0d0e10" opacity="0.9"/><rect x="699.7" y="862.3" width="35.0" height="27.3" fill="#d9b98a" opacity="0.8475306086230701"/><rect x="699.7" y="905.0" width="35.0" height="27.3" fill="#0d0e10" opacity="0.9"/><rect x="751.1" y="307.7" width="35.0" height="27.3" fill="#0d0e10" opacity="0.9"/><rect x="751.1" y="350.3" width="35.0" height="27.3" fill="#0d0e10" opacity="0.9"/><rect x="751.1" y="393.0" width="35.0" height="27.3" fill="#0d0e10" opacity="0.9"/><rect x="751.1" y="435.7" width="35.0" height="27.3" fill="#d9b98a" opacity="0.7895879106314797"/><rect x="751.1" y="478.3" width="35.0" height="27.3" fill="#0d0e10" opacity="0.9"/><rect x="751.1" y="521.0" width="35.0" height="27.3" fill="#0d0e10" opacity="0.9"/><rect x="751.1" y="563.7" width="35.0" height="27.3" fill="#0d0e10" opacity="0.9"/><rect x="751.1" y="606.3" width="35.0" height="27.3" fill="#0d0e10" opacity="0.9"/><rect x="751.1" y="649.0" width="35.0" height="27.3" fill="#0d0e10" opacity="0.9"/><rect x="751.1" y="691.7" width="35.0" height="27.3" fill="#0d0e10" opacity="0.9"/><rect x="751.1" y="734.3" width="35.0" height="27.3" fill="#0d0e10" opacity="0.9"/><rect x="751.1" y="777.0" width="35.0" height="27.3" fill="#d9b98a" opacity="0.6968995078219564"/><rect x="751.1" y="819.7" width="35.0" height="27.3" fill="#0d0e10" opacity="0.9"/><rect x="751.1" y="862.3" width="35.0" height="27.3" fill="#0d0e10" opacity="0.9"/><rect x="751.1" y="905.0" width="35.0" height="27.3" fill="#0d0e10" opacity="0.9"/><rect x="802.5" y="307.7" width="35.0" height="27.3" fill="#d9b98a" opacity="0.5617051904609918"/><rect x="802.5" y="350.3" width="35.0" height="27.3" fill="#0d0e10" opacity="0.9"/><rect x="802.5" y="393.0" width="35.0" height="27.3" fill="#d9b98a" opacity="0.606007034916434"/><rect x="802.5" y="435.7" width="35.0" height="27.3" fill="#0d0e10" opacity="0.9"/><rect x="802.5" y="478.3" width="35.0" height="27.3" fill="#0d0e10" opacity="0.9"/><rect x="802.5" y="521.0" width="35.0" height="27.3" fill="#d9b98a" opacity="0.5943262160962104"/><rect x="802.5" y="563.7" width="35.0" height="27.3" fill="#0d0e10" opacity="0.9"/><rect x="802.5" y="606.3" width="35.0" height="27.3" fill="#0d0e10" opacity="0.9"/><rect x="802.5" y="649.0" width="35.0" height="27.3" fill="#d9b98a" opacity="0.5770999455019367"/><rect x="802.5" y="691.7" width="35.0" height="27.3" fill="#0d0e10" opacity="0.9"/><rect x="802.5" y="734.3" width="35.0" height="27.3" fill="#0d0e10" opacity="0.9"/><rect x="802.5" y="777.0" width="35.0" height="27.3" fill="#0d0e10" opacity="0.9"/><rect x="802.5" y="819.7" width="35.0" height="27.3" fill="#d9b98a" opacity="0.7012789668754111"/><rect x="802.5" y="862.3" width="35.0" height="27.3" fill="#0d0e10" opacity="0.9"/><rect x="802.5" y="905.0" width="35.0" height="27.3" fill="#0d0e10" opacity="0.9"/><rect x="853.9" y="307.7" width="35.0" height="27.3" fill="#0d0e10" opacity="0.9"/><rect x="853.9" y="350.3" width="35.0" height="27.3" fill="#0d0e10" opacity="0.9"/><rect x="853.9" y="393.0" width="35.0" height="27.3" fill="#0d0e10" opacity="0.9"/><rect x="853.9" y="435.7" width="35.0" height="27.3" fill="#0d0e10" opacity="0.9"/><rect x="853.9" y="478.3" width="35.0" height="27.3" fill="#d9b98a" opacity="0.6322509726892463"/><rect x="853.9" y="521.0" width="35.0" height="27.3" fill="#d9b98a" opacity="0.6408870426895503"/><rect x="853.9" y="563.7" width="35.0" height="27.3" fill="#0d0e10" opacity="0.9"/><rect x="853.9" y="606.3" width="35.0" height="27.3" fill="#0d0e10" opacity="0.9"/><rect x="853.9" y="649.0" width="35.0" height="27.3" fill="#0d0e10" opacity="0.9"/><rect x="853.9" y="691.7" width="35.0" height="27.3" fill="#0d0e10" opacity="0.9"/><rect x="853.9" y="734.3" width="35.0" height="27.3" fill="#0d0e10" opacity="0.9"/><rect x="853.9" y="777.0" width="35.0" height="27.3" fill="#0d0e10" opacity="0.9"/><rect x="853.9" y="819.7" width="35.0" height="27.3" fill="#0d0e10" opacity="0.9"/><rect x="853.9" y="862.3" width="35.0" height="27.3" fill="#d9b98a" opacity="0.7122744069724691"/><rect x="853.9" y="905.0" width="35.0" height="27.3" fill="#0d0e10" opacity="0.9"/><rect x="905.4" y="307.7" width="35.0" height="27.3" fill="#0d0e10" opacity="0.9"/><rect x="905.4" y="350.3" width="35.0" height="27.3" fill="#0d0e10" opacity="0.9"/><rect x="905.4" y="393.0" width="35.0" height="27.3" fill="#0d0e10" opacity="0.9"/><rect x="905.4" y="435.7" width="35.0" height="27.3" fill="#0d0e10" opacity="0.9"/><rect x="905.4" y="478.3" width="35.0" height="27.3" fill="#0d0e10" opacity="0.9"/><rect x="905.4" y="521.0" width="35.0" height="27.3" fill="#0d0e10" opacity="0.9"/><rect x="905.4" y="563.7" width="35.0" height="27.3" fill="#0d0e10" opacity="0.9"/><rect x="905.4" y="606.3" width="35.0" height="27.3" fill="#d9b98a" opacity="0.8307523420922236"/><rect x="905.4" y="649.0" width="35.0" height="27.3" fill="#0d0e10" opacity="0.9"/><rect x="905.4" y="691.7" width="35.0" height="27.3" fill="#0d0e10" opacity="0.9"/><rect x="905.4" y="734.3" width="35.0" height="27.3" fill="#0d0e10" opacity="0.9"/><rect x="905.4" y="777.0" width="35.0" height="27.3" fill="#0d0e10" opacity="0.9"/><rect x="905.4" y="819.7" width="35.0" height="27.3" fill="#0d0e10" opacity="0.9"/><rect x="905.4" y="862.3" width="35.0" height="27.3" fill="#d9b98a" opacity="0.843825174306438"/><rect x="905.4" y="905.0" width="35.0" height="27.3" fill="#0d0e10" opacity="0.9"/><rect x="956.8" y="307.7" width="35.0" height="27.3" fill="#d9b98a" opacity="0.6875792152423316"/><rect x="956.8" y="350.3" width="35.0" height="27.3" fill="#0d0e10" opacity="0.9"/><rect x="956.8" y="393.0" width="35.0" height="27.3" fill="#0d0e10" opacity="0.9"/><rect x="956.8" y="435.7" width="35.0" height="27.3" fill="#d9b98a" opacity="0.575551326445095"/><rect x="956.8" y="478.3" width="35.0" height="27.3" fill="#0d0e10" opacity="0.9"/><rect x="956.8" y="521.0" width="35.0" height="27.3" fill="#0d0e10" opacity="0.9"/><rect x="956.8" y="563.7" width="35.0" height="27.3" fill="#0d0e10" opacity="0.9"/><rect x="956.8" y="606.3" width="35.0" height="27.3" fill="#0d0e10" opacity="0.9"/><rect x="956.8" y="649.0" width="35.0" height="27.3" fill="#0d0e10" opacity="0.9"/><rect x="956.8" y="691.7" width="35.0" height="27.3" fill="#0d0e10" opacity="0.9"/><rect x="956.8" y="734.3" width="35.0" height="27.3" fill="#d9b98a" opacity="0.7420462587345608"/><rect x="956.8" y="777.0" width="35.0" height="27.3" fill="#0d0e10" opacity="0.9"/><rect x="956.8" y="819.7" width="35.0" height="27.3" fill="#d9b98a" opacity="0.7050117946486044"/><rect x="956.8" y="862.3" width="35.0" height="27.3" fill="#0d0e10" opacity="0.9"/><rect x="956.8" y="905.0" width="35.0" height="27.3" fill="#d9b98a" opacity="0.7524188933905303"/><rect x="638.5" y="300" width="3" height="640" fill="#3b3b3f"/><rect x="689.9" y="300" width="3" height="640" fill="#3b3b3f"/><rect x="741.4" y="300" width="3" height="640" fill="#3b3b3f"/><rect x="792.8" y="300" width="3" height="640" fill="#3b3b3f"/><rect x="844.2" y="300" width="3" height="640" fill="#3b3b3f"/><rect x="895.6" y="300" width="3" height="640" fill="#3b3b3f"/><rect x="947.1" y="300" width="3" height="640" fill="#3b3b3f"/><rect x="998.5" y="300" width="3" height="640" fill="#3b3b3f"/><polygon points="1400,440 1480,412 1480,912 1400,940" fill="url(#side2)"/><polygon points="1080,440 1160,412 1480,412 1400,440" fill="#2a2a2c"/><rect x="1080" y="440" width="320" height="500" fill="url(#face2)"/><rect x="1088.5" y="448.2" width="36.3" height="29.1" fill="#0d0e10" opacity="0.9"/><rect x="1088.5" y="493.6" width="36.3" height="29.1" fill="#0d0e10" opacity="0.9"/><rect x="1088.5" y="539.1" width="36.3" height="29.1" fill="#0d0e10" opacity="0.9"/><rect x="1088.5" y="584.5" width="36.3" height="29.1" fill="#0d0e10" opacity="0.9"/><rect x="1088.5" y="630.0" width="36.3" height="29.1" fill="#0d0e10" opacity="0.9"/><rect x="1088.5" y="675.5" width="36.3" height="29.1" fill="#0d0e10" opacity="0.9"/><rect x="1088.5" y="720.9" width="36.3" height="29.1" fill="#d9b98a" opacity="0.803172856314654"/><rect x="1088.5" y="766.4" width="36.3" height="29.1" fill="#0d0e10" opacity="0.9"/><rect x="1088.5" y="811.8" width="36.3" height="29.1" fill="#0d0e10" opacity="0.9"/><rect x="1088.5" y="857.3" width="36.3" height="29.1" fill="#d9b98a" opacity="0.7548636402957438"/><rect x="1088.5" y="902.7" width="36.3" height="29.1" fill="#0d0e10" opacity="0.9"/><rect x="1141.9" y="448.2" width="36.3" height="29.1" fill="#0d0e10" opacity="0.9"/><rect x="1141.9" y="493.6" width="36.3" height="29.1" fill="#0d0e10" opacity="0.9"/><rect x="1141.9" y="539.1" width="36.3" height="29.1" fill="#0d0e10" opacity="0.9"/><rect x="1141.9" y="584.5" width="36.3" height="29.1" fill="#0d0e10" opacity="0.9"/><rect x="1141.9" y="630.0" width="36.3" height="29.1" fill="#0d0e10" opacity="0.9"/><rect x="1141.9" y="675.5" width="36.3" height="29.1" fill="#0d0e10" opacity="0.9"/><rect x="1141.9" y="720.9" width="36.3" height="29.1" fill="#0d0e10" opacity="0.9"/><rect x="1141.9" y="766.4" width="36.3" height="29.1" fill="#d9b98a" opacity="0.5546288169010677"/><rect x="1141.9" y="811.8" width="36.3" height="29.1" fill="#0d0e10" opacity="0.9"/><rect x="1141.9" y="857.3" width="36.3" height="29.1" fill="#0d0e10" opacity="0.9"/><rect x="1141.9" y="902.7" width="36.3" height="29.1" fill="#0d0e10" opacity="0.9"/><rect x="1195.2" y="448.2" width="36.3" height="29.1" fill="#0d0e10" opacity="0.9"/><rect x="1195.2" y="493.6" width="36.3" height="29.1" fill="#0d0e10" opacity="0.9"/><rect x="1195.2" y="539.1" width="36.3" height="29.1" fill="#d9b98a" opacity="0.6531405558824263"/><rect x="1195.2" y="584.5" width="36.3" height="29.1" fill="#0d0e10" opacity="0.9"/><rect x="1195.2" y="630.0" width="36.3" height="29.1" fill="#0d0e10" opacity="0.9"/><rect x="1195.2" y="675.5" width="36.3" height="29.1" fill="#0d0e10" opacity="0.9"/><rect x="1195.2" y="720.9" width="36.3" height="29.1" fill="#0d0e10" opacity="0.9"/><rect x="1195.2" y="766.4" width="36.3" height="29.1" fill="#0d0e10" opacity="0.9"/><rect x="1195.2" y="811.8" width="36.3" height="29.1" fill="#0d0e10" opacity="0.9"/><rect x="1195.2" y="857.3" width="36.3" height="29.1" fill="#d9b98a" opacity="0.600603155303096"/><rect x="1195.2" y="902.7" width="36.3" height="29.1" fill="#d9b98a" opacity="0.7444277145873884"/><rect x="1248.5" y="448.2" width="36.3" height="29.1" fill="#0d0e10" opacity="0.9"/><rect x="1248.5" y="493.6" width="36.3" height="29.1" fill="#d9b98a" opacity="0.8184489963894939"/><rect x="1248.5" y="539.1" width="36.3" height="29.1" fill="#0d0e10" opacity="0.9"/><rect x="1248.5" y="584.5" width="36.3" height="29.1" fill="#0d0e10" opacity="0.9"/><rect x="1248.5" y="630.0" width="36.3" height="29.1" fill="#0d0e10" opacity="0.9"/><rect x="1248.5" y="675.5" width="36.3" height="29.1" fill="#0d0e10" opacity="0.9"/><rect x="1248.5" y="720.9" width="36.3" height="29.1" fill="#0d0e10" opacity="0.9"/><rect x="1248.5" y="766.4" width="36.3" height="29.1" fill="#d9b98a" opacity="0.8444954270471332"/><rect x="1248.5" y="811.8" width="36.3" height="29.1" fill="#0d0e10" opacity="0.9"/><rect x="1248.5" y="857.3" width="36.3" height="29.1" fill="#0d0e10" opacity="0.9"/><rect x="1248.5" y="902.7" width="36.3" height="29.1" fill="#d9b98a" opacity="0.8300754916761423"/><rect x="1301.9" y="448.2" width="36.3" height="29.1" fill="#0d0e10" opacity="0.9"/><rect x="1301.9" y="493.6" width="36.3" height="29.1" fill="#0d0e10" opacity="0.9"/><rect x="1301.9" y="539.1" width="36.3" height="29.1" fill="#0d0e10" opacity="0.9"/><rect x="1301.9" y="584.5" width="36.3" height="29.1" fill="#0d0e10" opacity="0.9"/><rect x="1301.9" y="630.0" width="36.3" height="29.1" fill="#0d0e10" opacity="0.9"/><rect x="1301.9" y="675.5" width="36.3" height="29.1" fill="#0d0e10" opacity="0.9"/><rect x="1301.9" y="720.9" width="36.3" height="29.1" fill="#d9b98a" opacity="0.6963456016249702"/><rect x="1301.9" y="766.4" width="36.3" height="29.1" fill="#0d0e10" opacity="0.9"/><rect x="1301.9" y="811.8" width="36.3" height="29.1" fill="#d9b98a" opacity="0.809986714394757"/><rect x="1301.9" y="857.3" width="36.3" height="29.1" fill="#0d0e10" opacity="0.9"/><rect x="1301.9" y="902.7" width="36.3" height="29.1" fill="#d9b98a" opacity="0.6416824759411078"/><rect x="1355.2" y="448.2" width="36.3" height="29.1" fill="#0d0e10" opacity="0.9"/><rect x="1355.2" y="493.6" width="36.3" height="29.1" fill="#0d0e10" opacity="0.9"/><rect x="1355.2" y="539.1" width="36.3" height="29.1" fill="#0d0e10" opacity="0.9"/><rect x="1355.2" y="584.5" width="36.3" height="29.1" fill="#0d0e10" opacity="0.9"/><rect x="1355.2" y="630.0" width="36.3" height="29.1" fill="#0d0e10" opacity="0.9"/><rect x="1355.2" y="675.5" width="36.3" height="29.1" fill="#0d0e10" opacity="0.9"/><rect x="1355.2" y="720.9" width="36.3" height="29.1" fill="#0d0e10" opacity="0.9"/><rect x="1355.2" y="766.4" width="36.3" height="29.1" fill="#0d0e10" opacity="0.9"/><rect x="1355.2" y="811.8" width="36.3" height="29.1" fill="#0d0e10" opacity="0.9"/><rect x="1355.2" y="857.3" width="36.3" height="29.1" fill="#d9b98a" opacity="0.8062519429979157"/><rect x="1355.2" y="902.7" width="36.3" height="29.1" fill="#0d0e10" opacity="0.9"/><rect x="1078.5" y="440" width="3" height="500" fill="#3b3b3f"/><rect x="1131.8" y="440" width="3" height="500" fill="#3b3b3f"/><rect x="1185.2" y="440" width="3" height="500" fill="#3b3b3f"/><rect x="1238.5" y="440" width="3" height="500" fill="#3b3b3f"/><rect x="1291.8" y="440" width="3" height="500" fill="#3b3b3f"/><rect x="1345.2" y="440" width="3" height="500" fill="#3b3b3f"/><rect x="1398.5" y="440" width="3" height="500" fill="#3b3b3f"/>
<rect y="940" width="1600" height="60" fill="#060607"/>
<rect width="1600" height="1000" filter="url(#grain)"/>
</svg>