<svg xmlns="http://www.w3.org/2000/svg" width="1600" height="1000" viewBox="0 0 1600 1000" preserveAspectRatio="xMidYMid slice">
<defs>
<linearGradient id="sky" x1="0" y1="0" x2="0" y2="1"><stop offset="0" stop-color="#07080a"/><stop offset="0.62" stop-color="#1a1416"/><stop offset="1" stop-color="#3a1a1c"/></linearGradient>
<linearGradient id="face1" x1="0" y1="0" x2="1" y2="1"><stop offset="0" stop-color="#4a4a4f"/><stop offset="1" stop-color="#222226"/></linearGradient>
<linearGradient id="face2" x1="0" y1="0" x2="1" y2="1"><stop offset="0" stop-color="#3c3a3a"/><stop offset="1" stop-color="#1b1b1e"/></linearGradient>
<linearGradient id="side1" x1="0" y1="0" x2="1" y2="0"><stop offset="0" stop-color="#18181b"/><stop offset="1" stop-color="#0c0c0e"/></linearGradient>
<linearGradient id="side2" x1="0" y1="0" x2="1" y2="0"><stop offset="0" stop-color="#141416"/><stop offset="1" stop-color="#09090a"/></linearGradient>
<radialGradient id="glow" cx="0.5" cy="1" r="0.7"><stop offset="0" stop-color="#ac2027" stop-opacity="0.38"/><stop offset="1" stop-color="#ac2027" stop-opacity="0"/></radialGradient>
<filter id="grain"><feTurbulence type="fractalNoise" baseFrequency="0.9" numOctaves="2" stitchTiles="stitch"/><feColorMatrix values="0 0 0 0 1  0 0 0 0 1  0 0 0 0 1  0 0 0 0.06 0"/></filter>
</defs>
<rect width="1600" height="1000" fill="url(#sky)"/>
<rect width="1600" height="1000" fill="url(#glow)"/>
<polygon points="1180,360 1380,290 1380,870 1180,940" fill="url(#side1)"/><polygon points="420,360 620,290 1380,290 1180,360" fill="#2a2a2c"/><rect x="420" y="360" width="760" height="580" fill="url(#face1)"/><rect x="428.7" y="368.7" width="36.9" height="30.9" fill="#0d0e10" opacity="0.9"/><rect x="428.7" y="417.0" width="36.9" height="30.9" fill="#d9b98a" opacity="0.6145606871994961"/><rect x="428.7" y="465.4" width="36.9" height="30.9" fill="#d9b98a" opacity="0.7422887601853763"/><rect x="428.7" y="513.7" width="36.9" height="30.9" fill="#0d0e10" opacity="0.9"/><rect x="428.7" y="562.0" width="36.9" height="30.9" fill="#0d0e10" opacity="0.9"/><rect x="428.7" y="610.4" width="36.9" height="30.9" fill="#0d0e10" opacity="0.9"/><rect x="428.7" y="658.7" width="36.9" height="30.9" fill="#d9b98a" opacity="0.8167173242507118"/><rect x="428.7" y="707.0" width="36.9" height="30.9" fill="#0d0e10" opacity="0.9"/><rect x="428.7" y="755.4" width="36.9" height="30.9" fill="#0d0e10" opacity="0.9"/><rect x="428.7" y="803.7" width="36.9" height="30.9" fill="#d9b98a" opacity="0.8494681349953023"/><rect x="428.7" y="852.0" width="36.9" height="30.9" fill="#0d0e10" opacity="0.9"/><rect x="428.7" y="900.4" width="36.9" height="30.9" fill="#0d0e10" opacity="0.9"/><rect x="483.0" y="368.7" width="36.9" height="30.9" fill="#0d0e10" opacity="0.9"/><rect x="483.0" y="417.0" width="36.9" height="30.9" fill="#0d0e10" opacity="0.9"/><rect x="483.0" y="465.4" width="36.9" height="30.9" fill="#0d0e10" opacity="0.9"/><rect x="483.0" y="513.7" width="36.9" height="30.9" fill="#0d0e10" opacity="0.9"/><rect x="483.0" y="562.0" width="36.9" height="30.9" fill="#d9b98a" opacity="0.6859239085279051"/><rect x="483.0" y="610.4" width="36.9" height="30.9" fill="#d9b98a" opacity="0.7564732105966999"/><rect x="483.0" y="658.7" width="36.9" height="30.9" fill="#0d0e10" opacity="0.9"/><rect x="483.0" y="707.0" width="36.9" height="30.9" fill="#0d0e10" opacity="0.9"/><rect x="483.0" y="755.4" width="36.9" height="30.9" fill="#0d0e10" opacity="0.9"/><rect x="483.0" y="803.7" width="36.9" height="30.9" fill="#0d0e10" opacity="0.9"/><rect x="483.0" y="852.0" width="36.9" height="30.9" fill="#d9b98a" opacity="0.6385981067030683"/><rect x="483.0" y="900.4" width="36.9" height="30.9" fill="#0d0e10" opacity="0.9"/><rect x="537.3" y="368.7" width="36.9" height="30.9" fill="#0d0e10" opacity="0.9"/><rect x="537.3" y="417.0" width="36.9" height="30.9" fill="#0d0e10" opacity="0.9"/><rect x="537.3" y="465.4" width="36.9" height="30.9" fill="#0d0e10" opacity="0.9"/><rect x="537.3" y="513.7" width="36.9" height="30.9" fill="#0d0e10" opacity="0.9"/><rect x="537.3" y="562.0" width="36.9" height="30.9" fill="#d9b98a" opacity="0.7732609154299186"/><rect x="537.3" y="610.4" width="36.9" height="30.9" fill="#d9b98a" opacity="0.6280341764809724"/><rect x="537.3" y="658.7" width="36.9" height="30.9" fill="#0d0e10" opacity="0.9"/><rect x="537.3" y="707.0" width="36.9" height="30.9" fill="#0d0e10" opacity="0.9"/><rect x="537.3" y="755.4" width="36.9" height="30.9" fill="#d9b98a" opacity="0.6821864149683092"/><rect x="537.3" y="803.7" width="36.9" height="30.9" fill="#0d0e10" opacity="0.9"/><rect x="537.3" y="852.0" width="36.9" height="30.9" fill="#d9b98a" opacity="0.7479351932173294"/><rect x="537.3" y="900.4" width="36.9" height="30.9" fill="#d9b98a" opacity="0.63992820661046"/><rect x="591.5" y="368.7" width="36.9" height="30.9" fill="#0d0e10" opacity="0.9"/><rect x="591.5" y="417.0" width="36.9" height="30.9" fill="#0d0e10" opacity="0.9"/><rect x="591.5" y="465.4" width="36.9" height="30.9" fill="#0d0e10" opacity="0.9"/><rect x="591.5" y="513.7" width="36.9" height="30.9" fill="#0d0e10" opacity="0.9"/><rect x="591.5" y="562.0" width="36.9" height="30.9" fill="#0d0e10" opacity="0.9"/><rect x="591.5" y="610.4" width="36.9" height="30.9" fill="#0d0e10" opacity="0.9"/><rect x="591.5" y="658.7" width="36.9" height="30.9" fill="#0d0e10" opacity="0.9"/><rect x="591.5" y="707.0" width="36.9" height="30.9" fill="#0d0e10" opacity="0.9"/><rect x="591.5" y="755.4" width="36.9" height="30.9" fill="#d9b98a" opacity="0.5612582464289192"/><rect x="591.5" y="803.7" width="36.9" height="30.9" fill="#0d0e10" opacity="0.9"/><rect x="591.5" y="852.0" width="36.9" height="30.9" fill="#0d0e10" opacity="0.9"/><rect x="591.5" y="900.4" width="36.9" height="30.9" fill="#0d0e10" opacity="0.9"/><rect x="645.8" y="368.7" width="36.9" height="30.9" fill="#0d0e10" opacity="0.9"/><rect x="645.8" y="417.0" width="36.9" height="30.9" fill="#0d0e10" opacity="0.9"/><rect x="645.8" y="465.4" width="36.9" height="30.9" fill="#d9b98a" opacity="0.8364604712400867"/><rect x="645.8" y="513.7" width="36.9" height="30.9" fill="#0d0e10" opacity="0.9"/><rect x="645.8" y="562.0" width="36.9" height="30.9" fill="#0d0e10" opacity="0.9"/><rect x="645.8" y="610.4" width="36.9" height="30.9" fill="#0d0e10" opacity="0.9"/><rect x="645.8" y="658.7" width="36.9" height="30.9" fill="#0d0e10" opacity="0.9"/><rect x="645.8" y="707.0" width="36.9" height="30.9" fill="#0d0e10" opacity="0.9"/><rect x="645.8" y="755.4" width="36.9" height="30.9" fill="#0d0e10" opacity="0.9"/><rect x="645.8" y="803.7" width="36.9" height="30.9" fill="#d9b98a" opacity="0.6596541449938222"/><rect x="645.8" y="852.0" width="36.9" height="30.9" fill="#0d0e10" opacity="0.9"/><rect x="645.8" y="900.4" width="36.9" height="30.9" fill="#0d0e10" opacity="0.9"/><rect x="700.1" y="368.7" width="36.9" height="30.9" fill="#0d0e10" opacity="0.9"/><rect x="700.1" y="417.0" width="36.9" height="30.9" fill="#0d0e10" opacity="0.9"/><rect x="700.1" y="465.4" width="36.9" height="30.9" fill="#0d0e10" opacity="0.9"/><rect x="700.1" y="513.7" width="36.9" height="30.9" fill="#0d0e10" opacity="0.9"/><rect x="700.1" y="562.0" width="36.9" height="30.9" fill="#0d0e10" opacity="0.9"/><rect x="700.1" y="610.4" width="36.9" height="30.9" fill="#0d0e10" opacity="0.9"/><rect x="700.1" y="658.7" width="36.9" height="30.9" fill="#0d0e10" opacity="0.9"/><rect x="700.1" y="707.0" width="36.9" height="30.9" fill="#d9b98a" opacity="0.7655159488858264"/><rect x="700.1" y="755.4" width="36.9" height="30.9" fill="#d9b98a" opacity="0.6749950764817163"/><rect x="700.1" y="803.7" width="36.9" height="30.9" fill="#0d0e10" opacity="0.9"/><rect x="700.1" y="852.0" width="36.9" height="30.9" fill="#0d0e10" opacity="0.9"/><rect x="700.1" y="900.4" width="36.9" height="30.9" fill="#0d0e10" opacity="0.9"/><rect x="754.4" y="368.7" width="36.9" height="30.9" fill="#0d0e10" opacity="0.9"/><rect x="754.4" y="417.0" width="36.9" height="30.9" fill="#0d0e10" opacity="0.9"/><rect x="754.4" y="465.4" width="36.9" height="30.9" fill="#0d0e10" opacity="0.9"/><rect x="754.4" y="513.7" width="36.9" height="30.9" fill="#d9b98a" opacity="0.8445472258117737"/><rect x="754.4" y="562.0" width="36.9" height="30.9" fill="#0d0e10" opacity="0.9"/><rect x="754.4" y="610.4" width="36.9" height="30.9" fill="#0d0e10" opacity="0.9"/><rect x="754.4" y="658.7" width="36.9" height="30.9" fill="#d9b98a" opacity="0.7948002604044976"/><rect x="754.4" y="707.0" width="36.9" height="30.9" fill="#0d0e10" opacity="0.9"/><rect x="754.4" y="755.4" width="36.9" height="30.9" fill="#0d0e10" opacity="0.9"/><rect x="754.4" y="803.7" width="36.9" height="30.9" fill="#0d0e10" opacity="0.9"/><rect x="754.4" y="852.0" width="36.9" height="30.9" fill="#d9b98a" opacity="0.8451110091037635"/><rect x="754.4" y="900.4" width="36.9" height="30.9" fill="#0d0e10" opacity="0.9"/><rect x="808.7" y="368.7" width="36.9" height="30.9" fill="#0d0e10" opacity="0.9"/><rect x="808.7" y="417.0" width="36.9" height="30.9" fill="#d9b98a" opacity="0.6727320120775756"/><rect x="808.7" y="465.4" width="36.9" height="30.9" fill="#d9b98a" opacity="0.8218841622452644"/><rect x="808.7" y="513.7" width="36.9" height="30.9" fill="#d9b98a" opacity="0.6793874470188224"/><rect x="808.7" y="562.0" width="36.9" height="30.9" fill="#0d0e10" opacity="0.9"/><rect x="808.7" y="610.4" width="36.9" height="30.9" fill="#0d0e10" opacity="0.9"/><rect x="808.7" y="658.7" width="36.9" height="30.9" fill="#d9b98a" opacity="0.8160001271246002"/><rect x="808.7" y="707.0" width="36.9" height="30.9" fill="#0d0e10" opacity="0.9"/><rect x="808.7" y="755.4" width="36.9" height="30.9" fill="#0d0e10" opacity="0.9"/><rect x="808.7" y="803.7" width="36.9" height="30.9" fill="#d9b98a" opacity="0.6885687148378086"/><rect x="808.7" y="852.0" width="36.9" height="30.9" fill="#0d0e10" opacity="0.9"/><rect x="808.7" y="900.4" width="36.9" height="30.9" fill="#0d0e10" opacity="0.9"/><rect x="863.0" y="368.7" width="36.9" height="30.9" fill="#0d0e10" opacity="0.9"/><rect x="863.0" y="417.0" width="36.9" height="30.9" fill="#0d0e10" opacity="0.9"/><rect x="863.0" y="465.4" width="36.9" height="30.9" fill="#0d0e10" opacity="0.9"/><rect x="863.0" y="513.7" width="36.9" height="30.9" fill="#0d0e10" opacity="0.9"/><rect x="863.0" y="562.0" width="36.9" height="30.9" fill="#0d0e10" opacity="0.9"/><rect x="863.0" y="610.4" width="36.9" height="30.9" fill="#0d0e10" opacity="0.9"/><rect x="863.0" y="658.7" width="36.9" height="30.9" fill="#0d0e10" opacity="0.9"/><rect x="863.0" y="707.0" width="36.9" height="30.9" fill="#0d0e10" opacity="0.9"/><rect x="863.0" y="755.4" width="36.9" height="30.9" fill="#0d0e10" opacity="0.9"/><rect x="863.0" y="803.7" width="36.9" height="30.9" fill="#0d0e10" opacity="0.9"/><rect x="863.0" y="852.0" width="36.9" height="30.9" fill="#0d0e10" opacity="0.9"/><rect x="863.0" y="900.4" width="36.9" height="30.9" fill="#0d0e10" opacity="0.9"/><rect x="917.3" y="368.7" width="36.9" height="30.9" fill="#0d0e10" opacity="0.9"/><rect x="917.3" y="417.0" width="36.9" height="30.9" fill="#0d0e10" opacity="0.9"/><rect x="917.3" y="465.4" width="36.9" height="30.9" fill="#0d0e10" opacity="0.9"/><rect x="917.3" y="513.7" width="36.9" height="30.9" fill="#0d0e10" opacity="0.9"/><rect x="917.3" y="562.0" width="36.9" height="30.9" fill="#d9b98a" opacity="0.719302187706019"/><rect x="917.3" y="610.4" width="36.9" height="30.9" fill="#d9b98a" opacity="0.7785024234692112"/><rect x="917.3" y="658.7" width="36.9" height="30.9" fill="#0d0e10" opacity="0.9"/><rect x="917.3" y="707.0" width="36.9" height="30.9" fill="#0d0e10" opacity="0.9"/><rect x="917.3" y="755.4" width="36.9" height="30.9" fill="#0d0e10" opacity="0.9"/><rect x="917.3" y="803.7" width="36.9" height="30.9" fill="#0d0e10" opacity="0.9"/><rect x="917.3" y="852.0" width="36.9" height="30.9" fill="#0d0e10" opacity="0.9"/><rect x="917.3" y="900.4" width="36.9" height="30.9" fill="#0d0e10" opacity="0.9"/><rect x="971.5" y="368.7" width="36.9" height="30.9" fill="#0d0e10" opacity="0.9"/><rect x="971.5" y="417.0" width="36.9" height="30.9" fill="#0d0e10" opacity="0.9"/><rect x="971.5" y="465.4" width="36.9" height="30.9" fill="#0d0e10" opacity="0.9"/><rect x="971.5" y="513.7" width="36.9" height="30.9" fill="#d9b98a" opacity="0.7730637561637275"/><rect x="971.5" y="562.0" width="36.9" height="30.9" fill="#0d0e10" opacity="0.9"/><rect x="971.5" y="610.4" width="36.9" height="30.9" fill="#0d0e10" opacity="0.9"/><rect x="971.5" y="658.7" width="36.9" height="30.9" fill="#0d0e10" opacity="0.9"/><rect x="971.5" y="707.0" width="36.9" height="30.9" fill="#0d0e10" opacity="0.9"/><rect x="971.5" y="755.4" width="36.9" height="30.9" fill="#0d0e10" opacity="0.9"/><rect x="971.5" y="803.7" width="36.9" height="30.9" fill="#0d0e10" opacity="0.9"/><rect x="971.5" y="852.0" width="36.9" height="30.9" fill="#0d0e10" opacity="0.9"/><rect x="971.5" y="900.4" width="36.9" height="30.9" fill="#d9b98a" opacity="0.6631006732178389"/><rect x="1025.8" y="368.7" width="36.9" height="30.9" fill="#0d0e10" opacity="0.9"/><rect x="1025.8" y="417.0" width="36.9" height="30.9" fill="#0d0e10" opacity="0.9"/><rect x="1025.8" y="465.4" width="36.9" height="30.9" fill="#d9b98a" opacity="0.6514409199363743"/><rect x="1025.8" y="513.7" width="36.9" height="30.9" fill="#0d0e10" opacity="0.9"/><rect x="1025.8" y="562.0" width="36.9" height="30.9" fill="#0d0e10" opacity="0.9"/><rect x="1025.8" y="610.4" width="36.9" height="30.9" fill="#0d0e10" opacity="0.9"/><rect x="1025.8" y="658.7" width="36.9" height="30.9" fill="#0d0e10" opacity="0.9"/><rect x="1025.8" y="707.0" width="36.9" height="30.9" fill="#0d0e10" opacity="0.9"/><rect x="1025.8" y="755.4" width="36.9" height="30.9" fill="#0d0e10" opacity="0.9"/><rect x="1025.8" y="803.7" width="36.9" height="30.9" fill="#0d0e10" opacity="0.9"/><rect x="1025.8" y="852.0" width="36.9" height="30.9" fill="#0d0e10" opacity="0.9"/><rect x="1025.8" y="900.4" width="36.9" height="30.9" fill="#d9b98a" opacity="0.68194029183683"/><rect x="1080.1" y="368.7" width="36.9" height="30.9" fill="#0d0e10" opacity="0.9"/><rect x="1080.1" y="417.0" width="36.9" height="30.9" fill="#0d0e10" opacity="0.9"/><rect x="1080.1" y="465.4" width="36.9" height="30.9" fill="#0d0e10" opacity="0.9"/><rect x="1080.1" y="513.7" width="36.9" height="30.9" fill="#d9b98a" opacity="0.667323296664899"/><rect x="1080.1" y="562.0" width="36.9" height="30.9" fill="#d9b98a" opacity="0.5889181828307539"/><rect x="1080.1" y="610.4" width="36.9" height="30.9" fill="#0d0e10" opacity="0.9"/><rect x="1080.1" y="658.7" width="36.9" height="30.9" fill="#0d0e10" opacity="0.9"/><rect x="1080.1" y="707.0" width="36.9" height="30.9" fill="#0d0e10" opacity="0.9"/><rect x="1080.1" y="755.4" width="36.9" height="30.9" fill="#d9b98a" opacity="0.5660381256211727"/><rect x="1080.1" y="803.7" width="36.9" height="30.9" fill="#0d0e10" opacity="0.9"/><rect x="1080.1" y="852.0" width="36.9" height="30.9" fill="#0d0e10" opacity="0.9"/><rect x="1080.1" y="900.4" width="36.9" height="30.9" fill="#0d0e10" opacity="0.9"/><rect x="1134.4" y="368.7" width="36.9" height="30.9" fill="#0d0e10" opacity="0.9"/><rect x="1134.4" y="417.0" width="36.9" height="30.9" fill="#0d0e10" opacity="0.9"/><rect x="1134.4" y="465.4" width="36.9" height="30.9" fill="#0d0e10" opacity="0.9"/><rect x="1134.4" y="513.7" width="36.9" height="30.9" fill="#0d0e10" opacity="0.9"/><rect x="1134.4" y="562.0" width="36.9" height="30.9" fill="#0d0e10" opacity="0.9"/><rect x="1134.4" y="610.4" width="36.9" height="30.9" fill="#0d0e10" opacity="0.9"/><rect x="1134.4" y="658.7" width="36.9" height="30.9" fill="#0d0e10" opacity="0.9"/><rect x="1134.4" y="707.0" width="36.9" height="30.9" fill="#0d0e10" opacity="0.9"/><rect x="1134.4" y="755.4" width="36.9" height="30.9" fill="#0d0e10" opacity="0.9"/><rect x="1134.4" y="803.7" width="36.9" height="30.9" fill="#0d0e10" opacity="0.9"/><rect x="1134.4" y="852.0" width="36.9" height="30.9" fill="#0d0e10" opacity="0.9"/><rect x="1134.4" y="900.4" width="36.9" height="30.9" fill="#0d0e10" opacity="0.9"/><rect x="418.5" y="360" width="3" height="580" fill="#3b3b3f"/><rect x="472.8" y="360" width="3" height="580" fill="#3b3b3f"/><rect x="527.1" y="360" width="3" height="580" fill="#3b3b3f"/><rect x="581.4" y="360" width="3" height="580" fill="#3b3b3f"/><rect x="635.6" y="360" width="3" height="580" fill="#3b3b3f"/><rect x="689.9" y="360" width="3" height="580" fill="#3b3b3f"/><rect x="744.2" y="360" width="3" height="580" fill="#3b3b3f"/><rect x="798.5" y="360" width="3" height="580" fill="#3b3b3f"/><rect x="852.8" y="360" width="3" height="580" fill="#3b3b3f"/><rect x="907.1" y="360" width="3" height="580" fill="#3b3b3f"/><rect x="961.4" y="360" width="3" height="580" fill="#3b3b3f"/><rect x="1015.6" y="360" width="3" height="580" fill="#3b3b3f"/><rect x="1069.9" y="360" width="3" height="580" fill="#3b3b3f"/><rect x="1124.2" y="360" width="3" height="580" fill="#3b3b3f"/><rect x="1178.5" y="360" width="3" height="580" fill="#3b3b3f"/>
<rect y="940" width="1600" height="60" fill="#060607"/>
<rect width="1600" height="1000" filter="url(#grain)"/>
</svg>